<?xml version="1.0" encoding="UTF-8" standalone="no"?>
<!DOCTYPE svg PUBLIC "-//W3C//DTD SVG 1.1//EN"
 "http://www.w3.org/Graphics/SVG/1.1/DTD/svg11.dtd">
<!-- Generated by graphviz version 2.43.0 (0)
 -->
<!-- Title: %3 Pages: 1 -->
<svg width="188pt" height="242pt"
 viewBox="0.00 0.00 188.00 242.00" xmlns="http://www.w3.org/2000/svg" xmlns:xlink="http://www.w3.org/1999/xlink">
<g id="graph0" class="graph" transform="scale(1 1) rotate(0) translate(4 238)">
<title>%3</title>
<polygon fill="white" stroke="transparent" points="-4,4 -4,-238 184,-238 184,4 -4,4"/>
<!-- 0 -->
<g id="node1" class="node">
<title>0</title>
<ellipse fill="#e0e0e0" stroke="black" cx="99" cy="-225" rx="9" ry="9"/>
<text text-anchor="middle" x="99" y="-222.5" font-family="Times,serif" font-size="10.00">12</text>
</g>
<!-- 1 -->
<g id="node2" class="node">
<title>1</title>
<ellipse fill="lightblue" stroke="black" cx="81" cy="-171" rx="9" ry="9"/>
<text text-anchor="middle" x="81" y="-168.5" font-family="Times,serif" font-size="10.00">10</text>
</g>
<!-- 0&#45;&#45;1 -->
<g id="edge9" class="edge">
<title>0&#45;&#45;1</title>
<path fill="none" stroke="black" d="M96.34,-216.33C92.94,-206.5 87.08,-189.55 83.67,-179.7"/>
</g>
<!-- 2 -->
<g id="node11" class="node">
<title>2</title>
<ellipse fill="salmon" stroke="black" cx="117" cy="-171" rx="9" ry="9"/>
<text text-anchor="middle" x="117" y="-168.5" font-family="Times,serif" font-size="10.00">15</text>
</g>
<!-- 0&#45;&#45;2 -->
<g id="edge14" class="edge">
<title>0&#45;&#45;2</title>
<path fill="none" stroke="black" d="M101.66,-216.33C105.06,-206.5 110.92,-189.55 114.33,-179.7"/>
</g>
<!-- 3 -->
<g id="node3" class="node">
<title>3</title>
<ellipse fill="lightblue" stroke="black" cx="45" cy="-117" rx="9" ry="9"/>
<text text-anchor="middle" x="45" y="-114.5" font-family="Times,serif" font-size="10.00">5</text>
</g>
<!-- 1&#45;&#45;3 -->
<g id="edge7" class="edge">
<title>1&#45;&#45;3</title>
<path fill="none" stroke="black" d="M76.29,-163.2C69.43,-153.29 56.75,-134.97 49.82,-124.97"/>
</g>
<!-- 4 -->
<g id="node10" class="node">
<title>4</title>
<text text-anchor="middle" x="81" y="-114.5" font-family="Times,serif" font-size="10.00">ø</text>
</g>
<!-- 1&#45;&#45;4 -->
<g id="edge8" class="edge">
<title>1&#45;&#45;4</title>
<path fill="none" stroke="black" d="M81,-161.88C81,-152.16 81,-136 81,-126.24"/>
</g>
<!-- 7 -->
<g id="node4" class="node">
<title>7</title>
<ellipse fill="lightblue" stroke="black" cx="45" cy="-63" rx="9" ry="9"/>
<text text-anchor="middle" x="45" y="-60.5" font-family="Times,serif" font-size="10.00">4</text>
</g>
<!-- 3&#45;&#45;7 -->
<g id="edge3" class="edge">
<title>3&#45;&#45;7</title>
<path fill="none" stroke="black" d="M45,-107.88C45,-98.16 45,-82 45,-72.24"/>
</g>
<!-- 8 -->
<g id="node7" class="node">
<title>8</title>
<ellipse fill="salmon" stroke="black" cx="81" cy="-63" rx="9" ry="9"/>
<text text-anchor="middle" x="81" y="-60.5" font-family="Times,serif" font-size="10.00">8</text>
</g>
<!-- 3&#45;&#45;8 -->
<g id="edge6" class="edge">
<title>3&#45;&#45;8</title>
<path fill="none" stroke="black" d="M49.71,-109.2C56.57,-99.29 69.25,-80.97 76.18,-70.97"/>
</g>
<!-- 11 -->
<g id="node5" class="node">
<title>11</title>
<text text-anchor="middle" x="9" y="-6.5" font-family="Times,serif" font-size="10.00">ø</text>
</g>
<!-- 7&#45;&#45;11 -->
<g id="edge1" class="edge">
<title>7&#45;&#45;11</title>
<path fill="none" stroke="black" d="M40.29,-55.2C33.74,-45.73 21.86,-28.58 14.78,-18.35"/>
</g>
<!-- 12 -->
<g id="node6" class="node">
<title>12</title>
<text text-anchor="middle" x="45" y="-6.5" font-family="Times,serif" font-size="10.00">ø</text>
</g>
<!-- 7&#45;&#45;12 -->
<g id="edge2" class="edge">
<title>7&#45;&#45;12</title>
<path fill="none" stroke="black" d="M45,-53.88C45,-44.16 45,-28 45,-18.24"/>
</g>
<!-- 13 -->
<g id="node8" class="node">
<title>13</title>
<text text-anchor="middle" x="81" y="-6.5" font-family="Times,serif" font-size="10.00">ø</text>
</g>
<!-- 8&#45;&#45;13 -->
<g id="edge4" class="edge">
<title>8&#45;&#45;13</title>
<path fill="none" stroke="black" d="M81,-53.88C81,-44.16 81,-28 81,-18.24"/>
</g>
<!-- 14 -->
<g id="node9" class="node">
<title>14</title>
<text text-anchor="middle" x="117" y="-6.5" font-family="Times,serif" font-size="10.00">ø</text>
</g>
<!-- 8&#45;&#45;14 -->
<g id="edge5" class="edge">
<title>8&#45;&#45;14</title>
<path fill="none" stroke="black" d="M85.71,-55.2C92.26,-45.73 104.14,-28.58 111.22,-18.35"/>
</g>
<!-- 5 -->
<g id="node12" class="node">
<title>5</title>
<text text-anchor="middle" x="117" y="-114.5" font-family="Times,serif" font-size="10.00">ø</text>
</g>
<!-- 2&#45;&#45;5 -->
<g id="edge10" class="edge">
<title>2&#45;&#45;5</title>
<path fill="none" stroke="black" d="M117,-161.88C117,-152.16 117,-136 117,-126.24"/>
</g>
<!-- 6 -->
<g id="node13" class="node">
<title>6</title>
<ellipse fill="salmon" stroke="black" cx="153" cy="-117" rx="9" ry="9"/>
<text text-anchor="middle" x="153" y="-114.5" font-family="Times,serif" font-size="10.00">20</text>
</g>
<!-- 2&#45;&#45;6 -->
<g id="edge13" class="edge">
<title>2&#45;&#45;6</title>
<path fill="none" stroke="black" d="M121.71,-163.2C128.57,-153.29 141.25,-134.97 148.18,-124.97"/>
</g>
<!-- 9 -->
<g id="node14" class="node">
<title>9</title>
<text text-anchor="middle" x="135" y="-60.5" font-family="Times,serif" font-size="10.00">ø</text>
</g>
<!-- 6&#45;&#45;9 -->
<g id="edge11" class="edge">
<title>6&#45;&#45;9</title>
<path fill="none" stroke="black" d="M150.34,-108.33C146.98,-98.61 141.21,-81.94 137.79,-72.05"/>
</g>
<!-- 10 -->
<g id="node15" class="node">
<title>10</title>
<text text-anchor="middle" x="171" y="-60.5" font-family="Times,serif" font-size="10.00">ø</text>
</g>
<!-- 6&#45;&#45;10 -->
<g id="edge12" class="edge">
<title>6&#45;&#45;10</title>
<path fill="none" stroke="black" d="M155.66,-108.33C159.02,-98.61 164.79,-81.94 168.21,-72.05"/>
</g>
</g>
</svg>
